# AST/ASF file generated using VICON BodyLanguage
# -----------------------------------------------
:version 1.10
:name VICON
:units
  mass 1.0
  length 0.45
  angle deg
:documentation
   .ast/.asf automatically generated from VICON data using
   VICON BodyBuilder and BodyLanguage model FoxedUp or BRILLIANT.MOD
:root
   order TX TY TZ RX RY RZ
   axis XYZ
   position 0 0 0  
   orientation 0 0 0 
:bonedata
  begin
     id 1 
     name lhipjoint
     direction 0.575328 -0.747301 0.332475 
     length 2.40933 
     axis 0 0 0  XYZ
  end
  begin
     id 2 
     name lfemur
     direction 0.34202 -0.939693 0  
     length 7.31453  
     axis 0 0 20  XYZ
    dof rx ry rz
    limits (-160.0 20.0)
           (-70.0 70.0)
           (-60.0 70.0)
  end
  begin
     id 3 
     name ltibia
     direction 0.34202 -0.939693 0   
     length 7.82185   
     axis 0 0 20   XYZ
    dof rx
    limits (-10.0 170.0)
  end
  begin
     id 4 
     name lfoot
     direction 0.0795993 -0.218697 0.972541   
     length 2.19173   
     axis -90 7.62852e-016 20   XYZ
    dof rx rz
    limits (-45.0 90.0)
           (-70.0 20.0)
  end
  begin
     id 5 
     name ltoes
     direction 1.53537e-011 -4.21894e-011 1   
     length 1.10023   
     axis -90 7.62852e-016 20   XYZ
    dof rx
    limits (-90.0 20.0)
  end
  begin
     id 6 
     name rhipjoint
     direction -0.513884 -0.783789 0.348708   
     length 2.29716  
     axis 0 0 0  XYZ 
  end
  begin
     id 7 
     name rfemur
     direction -0.34202 -0.939693 0   
     length 7.59573   
     axis 0 0 -20   XYZ
    dof rx ry rz
    limits (-160.0 20.0)
           (-70.0 70.0)
           (-70.0 60.0)
  end
  begin
     id 8 
     name rtibia
     direction -0.34202 -0.939693 0   
     length 7.66402   
     axis 0 0 -20   XYZ
    dof rx
    limits (-10.0 170.0)
 end
 begin
     id 9 
     name rfoot
     direction -0.137793 -0.378584 0.915253   
     length 2.27056  
     axis -90 -7.62852e-016 -20   XYZ
    dof rx rz
    limits (-45.0 90.0)
           (-20.0 70.0)
  end
  begin
     id 10 
     name rtoes
     direction -1.53493e-011 -4.22159e-011 1   
     length 1.11766   
     axis -90 -7.62852e-016 -20   XYZ
    dof rx
    limits (-90.0 20.0)
  end
  begin
     id 11 
     name lowerback
     direction -0.00732775 0.998356 -0.05685   
     length 2.16513   
     axis 0 0 0   XYZ
    dof rx ry rz
    limits (-20.0 45.0)
           (-30.0 30.0)
           (-30.0 30.0)
  end
  begin
     id 12 
     name upperback
     direction 0.0218081 0.999627 -0.0164647   
     length 2.16755   
     axis 0 0 0   XYZ
    dof rx ry rz
    limits (-20.0 45.0)
           (-30.0 30.0)
           (-30.0 30.0)
  end
  begin
     id 13 
     name thorax
     direction 0.02365 0.999661 0.0108914   
     length 2.16932   
     axis 0 0 0   XYZ
    dof rx ry rz
    limits (-20.0 45.0)
           (-30.0 30.0)
           (-30.0 30.0)
  end
  begin
     id 14 
     name lowerneck
     direction -0.0523929 0.978385 0.200044   
     length 1.63877   
     axis 0 0 0   XYZ
    dof rx ry rz
    limits (-20.0 45.0)
           (-30.0 30.0)
           (-30.0 30.0)
  end
  begin
     id 15 
     name upperneck
     direction 0.0448674 0.981321 -0.187074   
     length 1.69014   
     axis 0 0 0   XYZ
    dof rx ry rz
    limits (-20.0 45.0)
           (-30.0 30.0)
           (-30.0 30.0)
  end
  begin
     id 16
     name head
     direction 0.0199089 0.996118 -0.0857429  
     length 1.70094  
     axis 0 0 0   XYZ
    dof rx ry rz
    limits (-20.0 45.0)
           (-30.0 30.0)
           (-30.0 30.0)
  end
  begin
     id 17 
     name lclavicle
     direction 0.940366 0.30191 -0.156722  
     length 3.37521  
     axis 0 0 0   XYZ
    dof ry rz
    limits (-20.0 10.0)
           (0.0 20.0)
  end
  begin
     id 18 
     name lhumerus
     direction 1 -4.4897e-011 -1.7911e-027   
     length 5.25287   
     axis 180 -30 -90   XYZ
    dof rx ry rz
    limits (-60.0 90.0)
           (-90.0 90.0)
           (-90.0 90.0)
  end
  begin
     id 19
     name lradius
     direction 1 -4.48951e-011 1.04424e-027   
     length 3.51014   
     axis 180 -30 -90   XYZ
    dof rx
    limits (-10.0 170.0)
  end
  begin
     id 20
     name lwrist
     direction 1 -4.48997e-011 -9.5942e-028   
     length 1.75507   
     axis 8.48502e-016 90 90   XYZ
    dof ry
    limits (-180.0 0.0)
 end
  begin
     id 21 
     name lhand
     direction 1 -4.48831e-011 -1.90777e-027   
     length 0.706179   
     axis 1.22306e-015 90 90   XYZ
    dof rx rz
    limits (-90.0 90.0)
           (-45.0 45.0)
  end
  begin
     id 22 
     name lfingers
     direction 1 -4.49108e-011 -3.85244e-027   
     length 0.569339   
     axis 2.44611e-015 90 90   XYZ
    dof rx
    limits (0.0 90.0)
  end
  begin
     id 23
     name lthumb
     direction 0.707107 -6.34953e-011 0.707107   
     length 0.817461   
     axis -90 45 -1.62303e-014   XYZ
    dof rx rz
    limits (-45.0 45.0)
           (-45.0 45.0)
  end
  begin
     id 24 
     name rclavicle
     direction -0.905329 0.382405 -0.184787   
     length 3.30787  
     axis 0 0 0   XYZ 
    dof ry rz
    limits (-10.0 20.0)
           (-20.0 0.0)
  end
  begin
     id 25 
     name rhumerus
     direction -1 -4.48953e-011 -9.15316e-029  
     length 5.28721   
     axis 180 30 90   XYZ
    dof rx ry rz
    limits (-90.0 60.0)
           (-90.0 90.0)
           (-90.0 90.0)
  end
  begin
     id 26 
     name rradius
     direction -1 -4.48987e-011 9.37824e-028   
     length 3.50544   
     axis 180 30 90   XYZ
    dof rx
    limits (-10.0 170.0)
  end
  begin
     id 27 
     name rwrist
     direction -1 -4.48967e-011 -9.58414e-028   
     length 1.75272   
     axis 8.48502e-016 -90 -90   XYZ
    dof ry
    limits (-180.0 0.0)
  end
  begin
     id 28
     name rhand
     direction -1 -4.48904e-011 -1.91266e-027   
     length 0.884996   
     axis 1.22306e-015 -90 -90   XYZ
    dof rx rz
    limits (-90.0 90.0)
           (-45.0 45.0)
  end
  begin
     id 29
     name rfingers
     direction -1 -4.4909e-011 -3.85015e-027   
     length 0.713507   
     axis 2.44611e-015 -90 -90   XYZ
    dof rx
    limits (0.0 90.0)
  end
  begin
     id 30
     name rthumb
     direction -0.707107 -6.34853e-011 0.707107   
     length 1.02446   
     axis -90 -45 1.62303e-014   XYZ
    dof rx rz
    limits (-45.0 45.0)
           (-45.0 45.0)
  end
:hierarchy
  begin
    root lhipjoint rhipjoint lowerback
    lhipjoint lfemur
    lfemur ltibia
    ltibia lfoot
    lfoot ltoes
    rhipjoint rfemur
    rfemur rtibia
    rtibia rfoot
    rfoot rtoes
    lowerback upperback
    upperback thorax
    thorax lowerneck lclavicle rclavicle
    lowerneck upperneck
    upperneck head
    lclavicle lhumerus
    lhumerus lradius
    lradius lwrist
    lwrist lhand lthumb
    lhand lfingers
    rclavicle rhumerus
    rhumerus rradius
    rradius rwrist
    rwrist rhand rthumb
    rhand rfingers
  end

#!OML:ASF F:\twosubjects\two\Thursday\Session 1\justin.ASF
:FULLY-SPECIFIED
:DEGREES
81
root 7.847 19.6751 -18.4965 -11.8038 -82.0826 15.7922
lowerback 3.51804 0.673696 -3.61918
upperback -1.77782 0.7743 1.86623
thorax -3.88842 0.501529 3.91377
lowerneck -22.2325 5.69 -4.23669
upperneck 23.7561 8.26994 4.1
head 10.9767 3.85724 3.46201
rclavicle 3.16068e-014 -5.56597e-015
rhumerus -21.8572 -31.4945 -14.6474
rradius 52.6071
rwrist -22.5854
rhand -21.7803 11.5689
rfingers 7.12502
rthumb 4.62095 -18.3607
lclavicle 3.16068e-014 -5.56597e-015
lhumerus -22.1524 32.6241 30.3737
lradius 53.9096
lwrist 14.547
lhand -12.1619 41.797
lfingers 7.12502
lthumb 13.9009 71.3124
rfemur -19.6464 -9.16458 12.2167
rtibia 46.3054
rfoot -4.17788 -7.6461
rtoes -20.9586
lfemur -18.1464 3.25776 -13.2027
ltibia 38.1704
lfoot 3.0627 -9.01129
ltoes -14.5317
82
root 7.85611 19.6741 -18.4916 -10.5599 -82.135 14.6729
lowerback 3.56598 0.737683 -3.36535
upperback -1.77872 0.870071 1.83037
thorax -3.92016 0.542721 3.72555
lowerneck -22.5184 5.60538 -4.22054
upperneck 24.0214 8.10321 4.29975
head 11.1286 3.80024 3.53225
rclavicle -1.2921e-015 -4.77083e-015
rhumerus -23.7695 -31.268 -15.878
rradius 52.5601
rwrist -23.5373
rhand -22.2748 11.2621
rfingers 7.12502
rthumb 4.14345 -18.6774
lclavicle -1.2921e-015 -4.77083e-015
lhumerus -23.2326 32.5789 32.0342
lradius 53.2931
lwrist 15.1413
lhand -12.3209 42.0744
lfingers 7.12502
lthumb 13.7478 71.6003
rfemur -20.3062 -9.63938 13.29
rtibia 47.1075
rfoot -4.74886 -6.93747
rtoes -21.6217
lfemur -18.8268 4.24048 -13.9304
ltibia 39.0096
lfoot 3.12511 -9.62434
ltoes -13.5584
83
root 7.8716 19.6594 -18.4919 -9.29225 -82.1126 13.372
lowerback 3.83294 0.416915 -3.25996
upperback -1.61557 0.449943 2.14426
thorax -3.86578 0.330629 4.02242
lowerneck -23.0278 5.8923 -5.33631
upperneck 24.0203 8.72598 5.06466
head 11.0875 4.08761 4.09521
rclavicle 1.10574e-014 7.95139e-015
rhumerus -23.9037 -31.0443 -18.021
rradius 52.1806
rwrist -24.0915
rhand -22.7462 11.1315
rfingers 7.12502
rthumb 3.68822 -18.8164
lclavicle 1.10574e-014 7.95139e-015
lhumerus -25.4377 33.4797 33.0963
lradius 52.6282
lwrist 15.4294
lhand -11.8585 42.3988
lfingers 7.12502
lthumb 14.1934 71.8939
rfemur -20.7841 -9.96342 14.3613
rtibia 47.8478
rfoot -5.00251 -6.41529
rtoes -22.1362
lfemur -19.3163 4.91006 -14.5852
ltibia 39.7594
lfoot 2.8754 -10.4027
ltoes -14.6051
84
root 7.88265 19.6247 -18.492 -10.9089 -81.7824 14.7761
lowerback 4.25389 -0.194219 -3.62204
upperback -1.46556 -0.387674 2.48458
thorax -3.86605 -0.0765068 4.64705
lowerneck -23.3379 6.39485 -6.49959
upperneck 24.1767 9.77475 5.44855
head 11.0433 4.50548 4.5816
rclavicle 1.71949e-014 -1.43125e-014
rhumerus -23.2241 -30.601 -20.6502
rradius 51.6399
rwrist -24.3949
rhand -23.1121 11.2381
rfingers 7.12502
rthumb 3.33485 -18.7156
lclavicle 1.71949e-014 -1.43125e-014
lhumerus -28.5198 34.3847 33.6199
lradius 51.9212
lwrist 15.5002
lhand -11.7285 42.3224
lfingers 7.12502
lthumb 14.3186 71.8087
rfemur -20.9056 -10.4246 14.8261
rtibia 48.4994
rfoot -5.24287 -5.84093
rtoes -22.9606
lfemur -19.4945 5.07783 -15.6628
ltibia 40.4439
lfoot 2.48539 -10.8175
ltoes -17.1897
85
root 7.88032 19.5838 -18.491 -10.3955 -81.5837 14.2217
lowerback 4.12526 1.00535 -3.10394
upperback -1.28802 1.20977 1.17818
thorax -3.73542 0.687549 2.87095
lowerneck -23.1741 5.52718 -3.44968
upperneck 23.9361 7.62899 4.69689
head 11.261 3.71445 3.51035
rclavicle 1.03368e-014 -1.19271e-015
rhumerus -30.3214 -32.3965 -19.5187
rradius 52.037
rwrist -25.58
rhand -23.6102 11.1613
rfingers 7.12502
rthumb 2.85381 -18.7993
lclavicle 1.03368e-014 -1.19271e-015
lhumerus -24.3461 32.3167 37.7544
lradius 50.2319
lwrist 15.4821
lhand -11.9123 41.2447
lfingers 7.12502
lthumb 14.1415 70.7434
rfemur -21.1318 -10.8525 15.5961
rtibia 49.0359
rfoot -5.42434 -5.0148
rtoes -24.5589
lfemur -19.76 5.32352 -16.3794
ltibia 41.0943
lfoot 2.06957 -11.4834
ltoes -19.7662
86
root 7.88183 19.5413 -18.488 -8.23305 -81.8007 12.3137
lowerback 3.73446 0.964521 -2.89924
upperback -1.049 1.18308 1.34243
thorax -3.26428 0.66041 2.93485
lowerneck -23.8579 5.73013 -2.42595
upperneck 24.1043 8.00053 3.17223
head 11.565 3.75839 2.88743
rclavicle -4.07509e-015 7.95139e-015
rhumerus -31.1384 -33.168 -21.4403
rradius 51.7978
rwrist -26.61
rhand -24.1338 10.5364
rfingers 7.12502
rthumb 2.34816 -19.4304
lclavicle -4.07509e-015 7.95139e-015
lhumerus -25.3287 33.4328 39.2731
lradius 48.9178
lwrist 16.4612
lhand -10.8308 40.3033
lfingers 7.12502
lthumb 15.1835 69.7262
rfemur -21.7533 -10.8726 16.6898
rtibia 49.4865
rfoot -5.50307 -3.89119
rtoes -25.2193
lfemur -20.3611 5.60346 -16.7465
ltibia 41.702
lfoot 2.0895 -12.2281
ltoes -20.199
87
root 7.89338 19.4842 -18.4759 -7.50242 -81.9767 11.5664
lowerback 3.93253 1.1482 -2.62538
upperback -0.973113 1.4348 1.25136
thorax -3.30611 0.778991 2.66642
lowerneck -23.7091 5.55126 -3.16707
upperneck 23.6559 7.68979 4.31825
head 11.2857 3.72502 3.34833
rclavicle -6.33626e-015 6.36111e-015
rhumerus -33.0524 -33.8753 -22.702
rradius 51.6981
rwrist -27.509
rhand -24.272 9.80707
rfingers 7.12502
rthumb 2.21465 -20.1612
lclavicle -6.33626e-015 6.36111e-015
lhumerus -25.5721 33.0556 41.1961
lradius 47.2811
lwrist 18.8478
lhand -5.74571 41.5689
lfingers 7.12502
lthumb 20.0768 70.5516
rfemur -22.0189 -10.4959 17.4287
rtibia 49.865
rfoot -5.56724 -2.85031
rtoes -24.6658
lfemur -20.676 5.39158 -17.2361
ltibia 42.2668
lfoot 2.49125 -12.2266
ltoes -18.43
88
root 7.90219 19.4053 -18.4645 -7.76971 -82.0252 11.5539
lowerback 4.3838 0.982232 -2.63732
upperback -0.953592 1.20448 1.32922
thorax -3.52705 0.668144 2.76376
lowerneck -23.3298 5.7578 -3.38537
upperneck 23.5576 7.97823 4.55903
head 11.1396 3.87224 3.49154
rclavicle -1.29955e-014 8.74653e-015
rhumerus -33.7694 -33.4457 -24.8377
rradius 51.5144
rwrist -28.9496
rhand -24.4668 9.37941
rfingers 7.12502
rthumb 2.02656 -20.5907
lclavicle -1.29955e-014 8.74653e-015
lhumerus -27.1836 33.2131 42.232
lradius 45.8127
lwrist 20.739
lhand -4.32618 42.393
lfingers 7.12502
lthumb 21.4407 71.2265
rfemur -21.9742 -10.0764 17.9441
rtibia 50.2158
rfoot -5.37003 -1.62274
rtoes -24.845
lfemur -20.5772 5.06281 -17.8131
ltibia 42.7512
lfoot 2.59019 -12.214
ltoes -17.7827
89
root 7.90506 19.319 -18.4633 -8.55007 -82.1399 12.1068
lowerback 4.62421 0.820942 -2.90995
upperback -0.850379 0.971882 1.45504
thorax -3.54732 0.558146 3.06373
lowerneck -22.7999 5.99862 -3.32328
upperneck 23.1782 8.37144 4.21301
head 10.9004 4.02157 3.3735
rclavicle 1.86361e-015 -1.78906e-014
rhumerus -34.233 -32.7034 -27.1759
rradius 51.3475
rwrist -30.6765
rhand -25.0267 8.74885
rfingers 7.12502
rthumb 1.48576 -21.2257
lclavicle 1.86361e-015 -1.78906e-014
lhumerus -28.8505 33.9972 43.3243
lradius 44.5034
lwrist 21.4031
lhand -3.51895 43.3436
lfingers 7.12502
lthumb 22.2158 72.0869
rfemur -22.025 -9.54293 18.3885
rtibia 50.5717
rfoot -4.94788 -0.195424
rtoes -23.9002
lfemur -20.4439 5.0216 -18.3893
ltibia 43.155
lfoot 2.84384 -13.0255
ltoes -17.6466
90
root 7.90539 19.2361 -18.462 -9.73044 -82.2774 13.1435
lowerback 4.72757 0.882023 -3.07037
upperback -0.695046 1.0395 1.38058
thorax -3.45147 0.590409 3.07127
lowerneck -22.3452 6.02219 -3.17168
upperneck 22.6065 8.39223 3.99825
head 10.6232 4.03408 3.23067
rclavicle 1.24737e-014 -7.95139e-016
rhumerus -35.3397 -32.8155 -29.0007
rradius 50.9684
rwrist -31.7874
rhand -25.4219 7.88993
rfingers 7.12502
rthumb 1.10408 -22.087
lclavicle 1.24737e-014 -7.95139e-016
lhumerus -29.5507 34.0493 45.0933
lradius 43.2252
lwrist 21.4845
lhand -4.74065 43.9606
lfingers 7.12502
lthumb 21.0426 72.839
rfemur -22.0971 -8.70362 18.7087
rtibia 50.9322
rfoot -4.60775 0.791936
rtoes -21.0832
lfemur -20.4096 4.96792 -18.9992
ltibia 43.5602
lfoot 3.3027 -13.6417
ltoes -16.7937
91
root 7.91077 19.1359 -18.4587 -10.4542 -82.3728 13.8259
lowerback 4.74356 0.688253 -3.23696
upperback -0.49381 0.774236 1.48364
thorax -3.23576 0.455116 3.29363
lowerneck -22.2394 6.10885 -3.61064
upperneck 22.2336 8.62117 4.1497
head 10.4263 4.13365 3.36334
rclavicle -1.13307e-014 1.19271e-015
rhumerus -35.3035 -33.4942 -31.324
rradius 50.134
rwrist -32.0906
rhand -25.5064 7.38501
rfingers 7.12502
rthumb 1.02251 -22.5923
lclavicle -1.13307e-014 1.19271e-015
lhumerus -30.7609 34.4456 46.5957
lradius 42.0373
lwrist 20.468
lhand -6.22425 44.2398
lfingers 7.12502
lthumb 19.6168 73.2701
rfemur -22.2161 -7.74491 19.0685
rtibia 51.2928
rfoot -4.4719 1.23376
rtoes -19.7884
lfemur -20.5726 4.7104 -19.5461
ltibia 44.0426
lfoot 4.06203 -13.3732
ltoes -13.9354
92
root 7.92536 19.0022 -18.4572 -9.76989 -82.4283 13.0584
lowerback 4.89803 0.386983 -3.35069
upperback -0.262647 0.367689 1.73686
thorax -3.05305 0.248325 3.65172
lowerneck -23.0459 6.46532 -3.89262
upperneck 22.6798 9.20788 4.32885
head 10.6828 4.38653 3.61042
rclavicle 2.0276e-014 -5.56597e-015
rhumerus -34.9931 -33.847 -33.9128
rradius 49.5594
rwrist -32.4915
rhand -25.6204 6.96084
rfingers 7.12502
rthumb 0.912415 -23.017
lclavicle 2.0276e-014 -5.56597e-015
lhumerus -32.1508 35.1601 48.0845
lradius 40.852
lwrist 18.1682
lhand -6.9211 44.2618
lfingers 7.12502
lthumb 18.9467 73.359
rfemur -22.3278 -7.03099 19.7009
rtibia 51.6401
rfoot -4.19579 1.38005
rtoes -19.1552
lfemur -20.8253 4.56295 -19.8415
ltibia 44.6336
lfoot 4.6149 -13.1153
ltoes -12.0289
93
root 7.93507 18.8562 -18.4523 -9.61767 -82.4305 12.8188
lowerback 5.06184 0.330482 -3.51104
upperback -0.165683 0.279219 1.79532
thorax -3.03837 0.204896 3.80999
lowerneck -23.5531 6.63159 -4.04905
upperneck 23.2055 9.35385 4.93544
head 10.9169 4.50342 3.92178
rclavicle 7.50412e-015 1.59028e-015
rhumerus -35.8017 -33.8756 -35.9057
rradius 49.17
rwrist -33.3687
rhand -25.7318 6.19032
rfingers 7.12502
rthumb 0.804753 -23.7879
lclavicle 7.50412e-015 1.59028e-015
lhumerus -33.1474 35.3402 49.9172
lradius 39.8149
lwrist 15.4595
lhand -6.47879 44.9429
lfingers 7.12502
lthumb 19.372 73.998
rfemur -22.5018 -6.55125 20.252
rtibia 51.9772
rfoot -3.54491 1.40153
rtoes -16.5855
lfemur -21.0541 4.51341 -20.2293
ltibia 45.2856
lfoot 4.4368 -13.2089
ltoes -14.698
94
root 7.93565 18.713 -18.4465 -10.6524 -82.4265 13.8307
lowerback 5.03903 0.265419 -3.77658
upperback -0.0774735 0.176751 1.75814
thorax -2.92578 0.153521 3.92924
lowerneck -23.6111 6.73873 -4.14304
upperneck 23.3588 9.44954 5.25988
head 10.9532 4.57804 4.07638
rclavicle -2.127e-014 -1.03368e-014
rhumerus -36.3376 -33.9982 -38.0778
rradius 48.4358
rwrist -34.0307
rhand -25.9122 5.40809
rfingers 7.12502
rthumb 0.630512 -24.5707
lclavicle -2.127e-014 -1.03368e-014
lhumerus -34.1298 35.4607 51.6726
lradius 39.0461
lwrist 13.6644
lhand -5.3484 46.6671
lfingers 7.12502
lthumb 20.4586 75.6092
rfemur -22.7347 -6.02823 20.5822
rtibia 52.3107
rfoot -2.9854 0.903912
rtoes -14.659
lfemur -21.2474 4.38158 -20.7294
ltibia 45.9284
lfoot 4.60937 -12.9079
ltoes -16.3235
